<mxfile host="app.diagrams.net" modified="2023-04-05T08:12:59.852Z" agent="Mozilla/5.0 (Windows NT 10.0; Win64; x64) AppleWebKit/537.36 (KHTML, like Gecko) Chrome/111.0.0.0 Safari/537.36" etag="24Yo1poL2zq9LidmMvLM" version="21.1.4" type="github">
  <diagram name="Side-1" id="D7HqKl3Z3gyon9UXmdIK">
    <mxGraphModel dx="1646" dy="1619" grid="1" gridSize="10" guides="1" tooltips="1" connect="1" arrows="1" fold="1" page="1" pageScale="1" pageWidth="827" pageHeight="1169" math="0" shadow="0">
      <root>
        <mxCell id="0" />
        <mxCell id="1" parent="0" />
        <mxCell id="BgE7IZgjUEUOgsatIoda-2" value="KUKA kr 6 r700 sixx&lt;br&gt;&lt;font color=&quot;#ff0000&quot;&gt;Manipulation&lt;/font&gt;" style="rounded=0;whiteSpace=wrap;html=1;verticalAlign=top;" vertex="1" parent="1">
          <mxGeometry x="310" y="-2" width="170" height="37" as="geometry" />
        </mxCell>
        <mxCell id="BgE7IZgjUEUOgsatIoda-4" value="" style="group" vertex="1" connectable="0" parent="1">
          <mxGeometry x="-30" y="-120" width="220" height="280" as="geometry" />
        </mxCell>
        <mxCell id="CZUTxU8bprXu9WcHHYoL-2" value="PC" style="rounded=0;whiteSpace=wrap;html=1;verticalAlign=top;" parent="BgE7IZgjUEUOgsatIoda-4" vertex="1">
          <mxGeometry x="-51.76470588235294" width="271.7647058823529" height="280" as="geometry" />
        </mxCell>
        <mxCell id="BgE7IZgjUEUOgsatIoda-3" value="ROS" style="rounded=1;whiteSpace=wrap;html=1;verticalAlign=top;arcSize=4;" vertex="1" parent="BgE7IZgjUEUOgsatIoda-4">
          <mxGeometry x="-46.38" y="35" width="261" height="240" as="geometry" />
        </mxCell>
        <mxCell id="BgE7IZgjUEUOgsatIoda-23" value="Neural network&amp;nbsp;&lt;font color=&quot;#ff0000&quot;&gt;motion planning&lt;/font&gt;" style="rounded=1;whiteSpace=wrap;html=1;" vertex="1" parent="BgE7IZgjUEUOgsatIoda-4">
          <mxGeometry x="-39.38235294117647" y="60" width="247" height="39" as="geometry" />
        </mxCell>
        <mxCell id="BgE7IZgjUEUOgsatIoda-22" value="UDP server &lt;font color=&quot;#ff0000&quot;&gt;communication&lt;/font&gt;&lt;br&gt;(kuka_rsi_hardware_interface)" style="rounded=1;whiteSpace=wrap;html=1;" vertex="1" parent="BgE7IZgjUEUOgsatIoda-4">
          <mxGeometry x="-39.38235294117647" y="220" width="247" height="50" as="geometry" />
        </mxCell>
        <mxCell id="BgE7IZgjUEUOgsatIoda-44" style="edgeStyle=orthogonalEdgeStyle;rounded=0;orthogonalLoop=1;jettySize=auto;html=1;exitX=0.25;exitY=1;exitDx=0;exitDy=0;dashed=1;endArrow=blockThin;endFill=1;startArrow=none;startFill=0;fillColor=#d5e8d4;strokeColor=#82b366;entryX=0.25;entryY=0;entryDx=0;entryDy=0;" edge="1" parent="BgE7IZgjUEUOgsatIoda-4" source="BgE7IZgjUEUOgsatIoda-23" target="BgE7IZgjUEUOgsatIoda-66">
          <mxGeometry relative="1" as="geometry">
            <mxPoint x="271.7647058823529" y="-60" as="sourcePoint" />
            <mxPoint x="-110" y="130" as="targetPoint" />
          </mxGeometry>
        </mxCell>
        <mxCell id="BgE7IZgjUEUOgsatIoda-45" value="Joint positions" style="edgeLabel;html=1;align=center;verticalAlign=middle;resizable=0;points=[];" vertex="1" connectable="0" parent="BgE7IZgjUEUOgsatIoda-44">
          <mxGeometry x="0.1139" y="1" relative="1" as="geometry">
            <mxPoint x="-2" y="-7" as="offset" />
          </mxGeometry>
        </mxCell>
        <mxCell id="BgE7IZgjUEUOgsatIoda-47" style="edgeStyle=orthogonalEdgeStyle;rounded=0;orthogonalLoop=1;jettySize=auto;html=1;exitX=0.75;exitY=0;exitDx=0;exitDy=0;dashed=1;endArrow=blockThin;endFill=1;startArrow=none;startFill=0;fillColor=#d5e8d4;strokeColor=#82b366;entryX=0.75;entryY=1;entryDx=0;entryDy=0;" edge="1" parent="BgE7IZgjUEUOgsatIoda-4" source="BgE7IZgjUEUOgsatIoda-22" target="BgE7IZgjUEUOgsatIoda-66">
          <mxGeometry relative="1" as="geometry">
            <mxPoint x="270" y="-50" as="sourcePoint" />
            <mxPoint x="270" y="190" as="targetPoint" />
            <Array as="points" />
          </mxGeometry>
        </mxCell>
        <mxCell id="BgE7IZgjUEUOgsatIoda-48" value="Joints &amp;amp; cartesian positions" style="edgeLabel;html=1;align=center;verticalAlign=middle;resizable=0;points=[];" vertex="1" connectable="0" parent="BgE7IZgjUEUOgsatIoda-47">
          <mxGeometry x="0.1139" y="1" relative="1" as="geometry">
            <mxPoint x="-3" y="4" as="offset" />
          </mxGeometry>
        </mxCell>
        <mxCell id="BgE7IZgjUEUOgsatIoda-66" value="MoveIt! &lt;font color=&quot;#ff0000&quot;&gt;motion planning&lt;/font&gt;" style="rounded=1;whiteSpace=wrap;html=1;" vertex="1" parent="BgE7IZgjUEUOgsatIoda-4">
          <mxGeometry x="-39.382352941176464" y="140" width="247" height="39" as="geometry" />
        </mxCell>
        <mxCell id="BgE7IZgjUEUOgsatIoda-68" style="edgeStyle=orthogonalEdgeStyle;rounded=0;orthogonalLoop=1;jettySize=auto;html=1;exitX=0.75;exitY=0;exitDx=0;exitDy=0;dashed=1;endArrow=blockThin;endFill=1;startArrow=none;startFill=0;fillColor=#d5e8d4;strokeColor=#82b366;entryX=0.75;entryY=1;entryDx=0;entryDy=0;" edge="1" parent="BgE7IZgjUEUOgsatIoda-4" source="BgE7IZgjUEUOgsatIoda-66" target="BgE7IZgjUEUOgsatIoda-23">
          <mxGeometry relative="1" as="geometry">
            <mxPoint x="32" y="114" as="sourcePoint" />
            <mxPoint x="32" y="150" as="targetPoint" />
          </mxGeometry>
        </mxCell>
        <mxCell id="BgE7IZgjUEUOgsatIoda-69" value="Joints &amp;amp; cartesian positions" style="edgeLabel;html=1;align=center;verticalAlign=middle;resizable=0;points=[];" vertex="1" connectable="0" parent="BgE7IZgjUEUOgsatIoda-68">
          <mxGeometry x="0.1139" y="1" relative="1" as="geometry">
            <mxPoint x="-2" y="6" as="offset" />
          </mxGeometry>
        </mxCell>
        <mxCell id="BgE7IZgjUEUOgsatIoda-71" style="edgeStyle=orthogonalEdgeStyle;rounded=0;orthogonalLoop=1;jettySize=auto;html=1;exitX=0.25;exitY=1;exitDx=0;exitDy=0;dashed=1;endArrow=blockThin;endFill=1;startArrow=none;startFill=0;fillColor=#d5e8d4;strokeColor=#82b366;entryX=0.25;entryY=0;entryDx=0;entryDy=0;" edge="1" parent="BgE7IZgjUEUOgsatIoda-4" source="BgE7IZgjUEUOgsatIoda-66" target="BgE7IZgjUEUOgsatIoda-22">
          <mxGeometry relative="1" as="geometry">
            <mxPoint x="32" y="114" as="sourcePoint" />
            <mxPoint x="32" y="150" as="targetPoint" />
          </mxGeometry>
        </mxCell>
        <mxCell id="BgE7IZgjUEUOgsatIoda-72" value="Joint positions" style="edgeLabel;html=1;align=center;verticalAlign=middle;resizable=0;points=[];" vertex="1" connectable="0" parent="BgE7IZgjUEUOgsatIoda-71">
          <mxGeometry x="0.1139" y="1" relative="1" as="geometry">
            <mxPoint x="-2" y="-8" as="offset" />
          </mxGeometry>
        </mxCell>
        <mxCell id="BgE7IZgjUEUOgsatIoda-6" value="" style="group;points=[[0,0,0,0,0],[0,0.25,0,0,0],[0,0.5,0,0,0],[0,0.75,0,0,0],[0,1,0,0,0],[0.25,0,0,0,0],[0.25,1,0,0,0],[0.5,0,0,0,0],[0.5,1,0,0,0],[0.75,0,0,0,0],[0.75,1,0,0,0],[1,0,0,0,0],[1,0.25,0,0,0],[1,0.5,0,0,0],[1,0.75,0,0,0],[1,1,0,0,0]];" vertex="1" connectable="0" parent="1">
          <mxGeometry x="310" y="40" width="170" height="120" as="geometry" />
        </mxCell>
        <mxCell id="BgE7IZgjUEUOgsatIoda-1" value="KUKA krc4 compact" style="rounded=0;whiteSpace=wrap;html=1;verticalAlign=top;" vertex="1" parent="BgE7IZgjUEUOgsatIoda-6">
          <mxGeometry y="30" width="170" height="90" as="geometry" />
        </mxCell>
        <mxCell id="BgE7IZgjUEUOgsatIoda-5" value="KSS &lt;font color=&quot;#ff0000&quot;&gt;robot control&lt;/font&gt;" style="rounded=1;whiteSpace=wrap;html=1;" vertex="1" parent="BgE7IZgjUEUOgsatIoda-6">
          <mxGeometry x="25" y="60" width="120" height="50" as="geometry" />
        </mxCell>
        <mxCell id="BgE7IZgjUEUOgsatIoda-9" style="edgeStyle=orthogonalEdgeStyle;rounded=0;orthogonalLoop=1;jettySize=auto;html=1;exitX=1;exitY=0.75;exitDx=0;exitDy=0;endArrow=blockThin;endFill=1;startArrow=blockThin;startFill=1;" edge="1" parent="1" source="CZUTxU8bprXu9WcHHYoL-2">
          <mxGeometry relative="1" as="geometry">
            <mxPoint x="310" y="90" as="targetPoint" />
          </mxGeometry>
        </mxCell>
        <mxCell id="BgE7IZgjUEUOgsatIoda-12" value="Ethernet cable" style="edgeLabel;html=1;align=center;verticalAlign=middle;resizable=0;points=[];" vertex="1" connectable="0" parent="BgE7IZgjUEUOgsatIoda-9">
          <mxGeometry x="0.1752" relative="1" as="geometry">
            <mxPoint x="-7" as="offset" />
          </mxGeometry>
        </mxCell>
        <mxCell id="BgE7IZgjUEUOgsatIoda-10" style="edgeStyle=orthogonalEdgeStyle;rounded=0;orthogonalLoop=1;jettySize=auto;html=1;exitX=0.25;exitY=0;exitDx=0;exitDy=0;entryX=0.25;entryY=1;entryDx=0;entryDy=0;endArrow=blockThin;endFill=1;startArrow=blockThin;startFill=1;" edge="1" parent="1" source="BgE7IZgjUEUOgsatIoda-1" target="BgE7IZgjUEUOgsatIoda-2">
          <mxGeometry relative="1" as="geometry" />
        </mxCell>
        <mxCell id="BgE7IZgjUEUOgsatIoda-49" value="Motor cable " style="edgeLabel;html=1;align=center;verticalAlign=middle;resizable=0;points=[];" vertex="1" connectable="0" parent="BgE7IZgjUEUOgsatIoda-10">
          <mxGeometry x="0.2484" y="-1" relative="1" as="geometry">
            <mxPoint y="3" as="offset" />
          </mxGeometry>
        </mxCell>
        <mxCell id="BgE7IZgjUEUOgsatIoda-26" style="edgeStyle=orthogonalEdgeStyle;rounded=0;orthogonalLoop=1;jettySize=auto;html=1;exitX=1;exitY=0.75;exitDx=0;exitDy=0;entryX=0;entryY=0.75;entryDx=0;entryDy=0;dashed=1;endArrow=blockThin;endFill=1;startArrow=blockThin;startFill=1;" edge="1" parent="1" source="BgE7IZgjUEUOgsatIoda-22" target="BgE7IZgjUEUOgsatIoda-5">
          <mxGeometry relative="1" as="geometry" />
        </mxCell>
        <mxCell id="BgE7IZgjUEUOgsatIoda-27" value="RSI" style="edgeLabel;html=1;align=center;verticalAlign=middle;resizable=0;points=[];" vertex="1" connectable="0" parent="BgE7IZgjUEUOgsatIoda-26">
          <mxGeometry x="0.2387" relative="1" as="geometry">
            <mxPoint x="-16" as="offset" />
          </mxGeometry>
        </mxCell>
        <mxCell id="BgE7IZgjUEUOgsatIoda-28" style="edgeStyle=orthogonalEdgeStyle;rounded=0;orthogonalLoop=1;jettySize=auto;html=1;exitX=0;exitY=0.25;exitDx=0;exitDy=0;dashed=1;endArrow=blockThin;endFill=1;startArrow=none;startFill=0;fillColor=#d5e8d4;strokeColor=#82b366;entryX=1;entryY=0.25;entryDx=0;entryDy=0;" edge="1" parent="1" source="BgE7IZgjUEUOgsatIoda-5" target="BgE7IZgjUEUOgsatIoda-22">
          <mxGeometry relative="1" as="geometry">
            <mxPoint x="172" y="111" as="sourcePoint" />
            <mxPoint x="300" y="112" as="targetPoint" />
          </mxGeometry>
        </mxCell>
        <mxCell id="BgE7IZgjUEUOgsatIoda-29" value="Joints &amp;amp; cartesian positions" style="edgeLabel;html=1;align=center;verticalAlign=middle;resizable=0;points=[];" vertex="1" connectable="0" parent="BgE7IZgjUEUOgsatIoda-28">
          <mxGeometry x="0.1139" y="1" relative="1" as="geometry">
            <mxPoint x="12" y="-4" as="offset" />
          </mxGeometry>
        </mxCell>
        <mxCell id="BgE7IZgjUEUOgsatIoda-30" value="ROS nodes: (node_name)&lt;br&gt;" style="text;html=1;align=center;verticalAlign=middle;resizable=0;points=[];autosize=1;strokeColor=none;fillColor=none;" vertex="1" parent="1">
          <mxGeometry x="25" y="-230" width="160" height="30" as="geometry" />
        </mxCell>
        <mxCell id="BgE7IZgjUEUOgsatIoda-33" style="edgeStyle=orthogonalEdgeStyle;rounded=0;orthogonalLoop=1;jettySize=auto;html=1;exitX=0;exitY=0.25;exitDx=0;exitDy=0;dashed=1;endArrow=blockThin;endFill=1;startArrow=none;startFill=0;fillColor=#d5e8d4;strokeColor=#82b366;entryX=1;entryY=0.25;entryDx=0;entryDy=0;" edge="1" parent="1">
          <mxGeometry relative="1" as="geometry">
            <mxPoint x="220" y="-190" as="sourcePoint" />
            <mxPoint x="20" y="-190" as="targetPoint" />
          </mxGeometry>
        </mxCell>
        <mxCell id="BgE7IZgjUEUOgsatIoda-34" value="Data being transfered" style="edgeLabel;html=1;align=center;verticalAlign=middle;resizable=0;points=[];" vertex="1" connectable="0" parent="BgE7IZgjUEUOgsatIoda-33">
          <mxGeometry x="0.1139" y="1" relative="1" as="geometry">
            <mxPoint x="19" y="-4" as="offset" />
          </mxGeometry>
        </mxCell>
        <mxCell id="BgE7IZgjUEUOgsatIoda-35" style="edgeStyle=orthogonalEdgeStyle;rounded=0;orthogonalLoop=1;jettySize=auto;html=1;exitX=1;exitY=0.75;exitDx=0;exitDy=0;entryX=0;entryY=0.75;entryDx=0;entryDy=0;dashed=1;endArrow=blockThin;endFill=1;startArrow=blockThin;startFill=1;" edge="1" parent="1">
          <mxGeometry relative="1" as="geometry">
            <mxPoint x="20" y="-170" as="sourcePoint" />
            <mxPoint x="220" y="-170" as="targetPoint" />
          </mxGeometry>
        </mxCell>
        <mxCell id="BgE7IZgjUEUOgsatIoda-36" value="Data protocol" style="edgeLabel;html=1;align=center;verticalAlign=middle;resizable=0;points=[];" vertex="1" connectable="0" parent="BgE7IZgjUEUOgsatIoda-35">
          <mxGeometry x="0.2387" relative="1" as="geometry">
            <mxPoint x="-16" as="offset" />
          </mxGeometry>
        </mxCell>
        <mxCell id="BgE7IZgjUEUOgsatIoda-37" style="edgeStyle=orthogonalEdgeStyle;rounded=0;orthogonalLoop=1;jettySize=auto;html=1;exitX=1;exitY=0.25;exitDx=0;exitDy=0;endArrow=blockThin;endFill=1;startArrow=blockThin;startFill=1;" edge="1" parent="1">
          <mxGeometry relative="1" as="geometry">
            <mxPoint x="20" y="-150" as="sourcePoint" />
            <mxPoint x="220" y="-150" as="targetPoint" />
          </mxGeometry>
        </mxCell>
        <mxCell id="BgE7IZgjUEUOgsatIoda-38" value="Physical link standard" style="edgeLabel;html=1;align=center;verticalAlign=middle;resizable=0;points=[];" vertex="1" connectable="0" parent="BgE7IZgjUEUOgsatIoda-37">
          <mxGeometry x="0.1752" relative="1" as="geometry">
            <mxPoint x="-7" as="offset" />
          </mxGeometry>
        </mxCell>
        <mxCell id="BgE7IZgjUEUOgsatIoda-39" value="" style="group;points=[[0,0,0,0,0],[0,0.25,0,0,0],[0,0.5,0,0,0],[0,0.75,0,0,0],[0,1,0,0,0],[0.25,0,0,0,0],[0.25,1,0,0,0],[0.5,0,0,0,0],[0.5,1,0,0,0],[0.75,0,0,0,0],[0.75,1,0,0,0],[1,0,0,0,0],[1,0.25,0,0,0],[1,0.5,0,0,0],[1,0.75,0,0,0],[1,1,0,0,0]];" vertex="1" connectable="0" parent="1">
          <mxGeometry x="244" y="-230" width="170" height="30" as="geometry" />
        </mxCell>
        <mxCell id="BgE7IZgjUEUOgsatIoda-40" value="Physical component" style="rounded=0;whiteSpace=wrap;html=1;verticalAlign=top;" vertex="1" parent="BgE7IZgjUEUOgsatIoda-39">
          <mxGeometry width="170" height="30" as="geometry" />
        </mxCell>
        <mxCell id="BgE7IZgjUEUOgsatIoda-42" value="Software" style="rounded=1;whiteSpace=wrap;html=1;" vertex="1" parent="1">
          <mxGeometry x="270" y="-190" width="120" height="30" as="geometry" />
        </mxCell>
        <mxCell id="BgE7IZgjUEUOgsatIoda-50" style="edgeStyle=orthogonalEdgeStyle;rounded=0;orthogonalLoop=1;jettySize=auto;html=1;exitX=0.75;exitY=0;exitDx=0;exitDy=0;entryX=0.75;entryY=1;entryDx=0;entryDy=0;endArrow=blockThin;endFill=1;startArrow=blockThin;startFill=1;" edge="1" parent="1" source="BgE7IZgjUEUOgsatIoda-1" target="BgE7IZgjUEUOgsatIoda-2">
          <mxGeometry relative="1" as="geometry">
            <mxPoint x="363" y="35" as="sourcePoint" />
            <mxPoint x="363" y="-30" as="targetPoint" />
          </mxGeometry>
        </mxCell>
        <mxCell id="BgE7IZgjUEUOgsatIoda-51" value="Data cable " style="edgeLabel;html=1;align=center;verticalAlign=middle;resizable=0;points=[];" vertex="1" connectable="0" parent="BgE7IZgjUEUOgsatIoda-50">
          <mxGeometry x="0.2484" y="-1" relative="1" as="geometry">
            <mxPoint y="3" as="offset" />
          </mxGeometry>
        </mxCell>
        <mxCell id="BgE7IZgjUEUOgsatIoda-52" style="edgeStyle=orthogonalEdgeStyle;rounded=0;orthogonalLoop=1;jettySize=auto;html=1;exitX=1;exitY=0.5;exitDx=0;exitDy=0;dashed=1;endArrow=blockThin;endFill=1;startArrow=none;startFill=0;fillColor=#d5e8d4;strokeColor=#82b366;entryX=0;entryY=0.5;entryDx=0;entryDy=0;" edge="1" parent="1" source="BgE7IZgjUEUOgsatIoda-22" target="BgE7IZgjUEUOgsatIoda-5">
          <mxGeometry relative="1" as="geometry">
            <mxPoint x="230" y="-180" as="sourcePoint" />
            <mxPoint x="30" y="-180" as="targetPoint" />
          </mxGeometry>
        </mxCell>
        <mxCell id="BgE7IZgjUEUOgsatIoda-53" value="Joint corrections" style="edgeLabel;html=1;align=center;verticalAlign=middle;resizable=0;points=[];" vertex="1" connectable="0" parent="BgE7IZgjUEUOgsatIoda-52">
          <mxGeometry x="0.1139" y="1" relative="1" as="geometry">
            <mxPoint x="-2" y="1" as="offset" />
          </mxGeometry>
        </mxCell>
        <mxCell id="BgE7IZgjUEUOgsatIoda-54" value="Intel realsense&lt;br&gt;&lt;font color=&quot;#ff0000&quot;&gt;Image acquisition&lt;/font&gt;" style="rounded=0;whiteSpace=wrap;html=1;verticalAlign=top;" vertex="1" parent="1">
          <mxGeometry x="310" y="-110" width="170" height="40" as="geometry" />
        </mxCell>
        <mxCell id="BgE7IZgjUEUOgsatIoda-56" style="edgeStyle=orthogonalEdgeStyle;rounded=0;orthogonalLoop=1;jettySize=auto;html=1;endArrow=blockThin;endFill=1;startArrow=blockThin;startFill=1;entryX=0;entryY=0.25;entryDx=0;entryDy=0;" edge="1" parent="1" target="BgE7IZgjUEUOgsatIoda-54">
          <mxGeometry relative="1" as="geometry">
            <mxPoint x="190" y="-100" as="sourcePoint" />
            <mxPoint x="230" y="-140" as="targetPoint" />
          </mxGeometry>
        </mxCell>
        <mxCell id="BgE7IZgjUEUOgsatIoda-57" value="USB cable" style="edgeLabel;html=1;align=center;verticalAlign=middle;resizable=0;points=[];" vertex="1" connectable="0" parent="BgE7IZgjUEUOgsatIoda-56">
          <mxGeometry x="0.1752" relative="1" as="geometry">
            <mxPoint x="-7" as="offset" />
          </mxGeometry>
        </mxCell>
        <mxCell id="BgE7IZgjUEUOgsatIoda-75" value="&lt;font color=&quot;#ff0000&quot;&gt;Function&lt;/font&gt;" style="text;html=1;align=center;verticalAlign=middle;resizable=0;points=[];autosize=1;strokeColor=none;fillColor=none;" vertex="1" parent="1">
          <mxGeometry x="70" y="-250" width="70" height="30" as="geometry" />
        </mxCell>
        <mxCell id="BgE7IZgjUEUOgsatIoda-76" value="GRIPKIT-E1&lt;br&gt;&lt;font color=&quot;#ff0000&quot;&gt;Gripping&lt;/font&gt;" style="rounded=0;whiteSpace=wrap;html=1;verticalAlign=top;" vertex="1" parent="1">
          <mxGeometry x="310" y="-55" width="170" height="40" as="geometry" />
        </mxCell>
        <mxCell id="BgE7IZgjUEUOgsatIoda-81" style="edgeStyle=orthogonalEdgeStyle;rounded=0;orthogonalLoop=1;jettySize=auto;html=1;exitX=0;exitY=0.75;exitDx=0;exitDy=0;dashed=1;endArrow=blockThin;endFill=1;startArrow=none;startFill=0;fillColor=#d5e8d4;strokeColor=#82b366;entryX=0.75;entryY=0;entryDx=0;entryDy=0;" edge="1" parent="1" source="BgE7IZgjUEUOgsatIoda-54" target="BgE7IZgjUEUOgsatIoda-23">
          <mxGeometry relative="1" as="geometry">
            <mxPoint x="230" y="-180" as="sourcePoint" />
            <mxPoint x="30" y="-180" as="targetPoint" />
            <Array as="points">
              <mxPoint x="116" y="-80" />
            </Array>
          </mxGeometry>
        </mxCell>
        <mxCell id="BgE7IZgjUEUOgsatIoda-82" value="Images" style="edgeLabel;html=1;align=center;verticalAlign=middle;resizable=0;points=[];" vertex="1" connectable="0" parent="BgE7IZgjUEUOgsatIoda-81">
          <mxGeometry x="0.1139" y="1" relative="1" as="geometry">
            <mxPoint x="30" y="-2" as="offset" />
          </mxGeometry>
        </mxCell>
        <mxCell id="BgE7IZgjUEUOgsatIoda-86" style="edgeStyle=orthogonalEdgeStyle;rounded=0;orthogonalLoop=1;jettySize=auto;html=1;exitX=1;exitY=0.75;exitDx=0;exitDy=0;dashed=1;endArrow=blockThin;endFill=1;startArrow=none;startFill=0;fillColor=#d5e8d4;strokeColor=#82b366;entryX=-0.005;entryY=0.626;entryDx=0;entryDy=0;entryPerimeter=0;" edge="1" parent="1" source="BgE7IZgjUEUOgsatIoda-23" target="BgE7IZgjUEUOgsatIoda-76">
          <mxGeometry relative="1" as="geometry">
            <mxPoint x="230" y="-180" as="sourcePoint" />
            <mxPoint x="30" y="-180" as="targetPoint" />
          </mxGeometry>
        </mxCell>
        <mxCell id="BgE7IZgjUEUOgsatIoda-87" value="Open/close commands" style="edgeLabel;html=1;align=center;verticalAlign=middle;resizable=0;points=[];" vertex="1" connectable="0" parent="BgE7IZgjUEUOgsatIoda-86">
          <mxGeometry x="0.1139" y="1" relative="1" as="geometry">
            <mxPoint x="-11" y="1" as="offset" />
          </mxGeometry>
        </mxCell>
        <mxCell id="BgE7IZgjUEUOgsatIoda-88" style="edgeStyle=orthogonalEdgeStyle;rounded=0;orthogonalLoop=1;jettySize=auto;html=1;exitX=1;exitY=0.268;exitDx=0;exitDy=0;endArrow=blockThin;endFill=1;startArrow=blockThin;startFill=1;entryX=0;entryY=0.25;entryDx=0;entryDy=0;exitPerimeter=0;" edge="1" parent="1" source="CZUTxU8bprXu9WcHHYoL-2" target="BgE7IZgjUEUOgsatIoda-76">
          <mxGeometry relative="1" as="geometry">
            <mxPoint x="30" y="-140" as="sourcePoint" />
            <mxPoint x="230" y="-140" as="targetPoint" />
          </mxGeometry>
        </mxCell>
        <mxCell id="BgE7IZgjUEUOgsatIoda-89" value="USB" style="edgeLabel;html=1;align=center;verticalAlign=middle;resizable=0;points=[];" vertex="1" connectable="0" parent="BgE7IZgjUEUOgsatIoda-88">
          <mxGeometry x="0.1752" relative="1" as="geometry">
            <mxPoint x="-7" as="offset" />
          </mxGeometry>
        </mxCell>
      </root>
    </mxGraphModel>
  </diagram>
</mxfile>
